<svg xmlns="http://www.w3.org/2000/svg" width="780" height="780"><style>@media (prefers-color-scheme:dark){#base{fill:#eee}#tile{fill:#474747}[id$=key] :nth-child(2){opacity:.1}}</style><defs><symbol id="tile" fill="#eee"><rect width="200" height="200" rx="24"/></symbol><symbol id="ctile"><path d="M0 112C0 50.144 50.144 0 112 0h64c13.255 0 24 10.745 24 24v152c0 13.255-10.745 24-24 24H24c-13.255 0-24-10.745-24-24z"/></symbol><symbol id="arrowkey"><use href="#tile"/><path fill="#d9d9d9" d="M93.072 62c3.079-5.333 10.777-5.333 13.856 0l29.445 51c3.079 5.333-.77 12-6.928 12h-58.89c-6.158 0-10.007-6.667-6.928-12z" opacity=".5"/></symbol><symbol id="centerkey"><use href="#tile"/><circle cx="100" cy="100" r="35" fill="#d9d9d9" opacity=".5"/></symbol></defs><rect id="base" width="780" height="780" fill="#474747" rx="152"/><g id="dpad"><use x="290" y="50" href="#arrowkey"/><use x="290" y="290" href="#centerkey"/><use x="290" y="530" href="#arrowkey" transform="rotate(180 390 630)"/><use x="50" y="290" href="#arrowkey" transform="rotate(270 150 390)"/><use x="530" y="290" href="#arrowkey" transform="rotate(90 630 390)"/></g><g id="cornertiles"><use x="50" y="50" fill="#efe700" href="#ctile"/><use x="530" y="50" fill="#f04747" href="#ctile" transform="rotate(90 630 150)"/><use x="50" y="530" fill="#d4b962" href="#ctile" transform="rotate(270 150 630)"/><use x="530" y="530" fill="#d2475d" href="#ctile" transform="rotate(180 630 630)"/></g></svg>